# PF_Floor_DogFilledHole_Merged.obj
mtllib PF_Floor_DogFilledHole_Merged.mtl
o PF_Floor_DogFilledHole_Merged
v -0.500000 -0.050000 -0.500000
v 0.500000 -0.050000 -0.500000
v 0.500000 -0.050000 0.500000
v -0.500000 -0.050000 0.500000
v -0.500000 0.050000 -0.500000
v 0.500000 0.050000 -0.500000
v 0.500000 0.050000 0.500000
v -0.500000 0.050000 0.500000
v 0.000000 0.128000 0.000000
v 0.125421 0.101851 0.000000
v 0.130959 0.106912 0.008584
v 0.133327 0.103138 0.017553
v 0.131513 0.103648 0.026160
v 0.126009 0.094461 0.033764
v 0.118521 0.099044 0.040232
v 0.111103 0.093890 0.046020
v 0.105176 0.091166 0.051867
v 0.100950 0.092115 0.058284
v 0.097517 0.101361 0.065159
v 0.093517 0.104094 0.071758
v 0.087982 0.103793 0.077158
v 0.080881 0.106068 0.080881
v 0.073088 0.108615 0.083341
v 0.065837 0.109060 0.085801
v 0.059996 0.108387 0.089791
v 0.055586 0.104684 0.096278
v 0.051799 0.097363 0.105038
v 0.047469 0.093943 0.114600
v 0.041702 0.094764 0.122849
v 0.034294 0.090904 0.127988
v 0.025734 0.094076 0.129374
v 0.016822 0.094580 0.127778
v 0.008188 0.103689 0.124917
v 0.000000 0.107261 0.122523
v -0.007960 0.104582 0.121440
v -0.015961 0.102356 0.121235
v -0.023976 0.106551 0.120534
v -0.031584 0.096909 0.117873
v -0.038224 0.097243 0.112605
v -0.043636 0.096090 0.105347
v -0.048194 0.093561 0.097727
v -0.052876 0.095051 0.091583
v -0.058821 0.101171 0.088032
v -0.066699 0.104446 0.086924
v -0.076250 0.100538 0.086946
v -0.086301 0.105539 0.086301
v -0.095292 0.108002 0.083569
v -0.102044 0.101642 0.078301
v -0.106358 0.102306 0.071066
v -0.109081 0.097878 0.062978
v -0.111587 0.094865 0.055028
v -0.114936 0.094168 0.047608
v -0.119192 0.094492 0.040460
v -0.123298 0.091545 0.033038
v -0.125606 0.092331 0.024985
v -0.124800 0.101500 0.016430
v -0.120715 0.103644 0.007912
v -0.114579 0.105442 0.000000
v -0.108527 0.112704 -0.007113
v -0.104620 0.108735 -0.013773
v -0.103876 0.104099 -0.020662
v -0.105813 0.100864 -0.028353
v -0.108742 0.101912 -0.036913
v -0.110628 0.095823 -0.045824
v -0.110074 0.093441 -0.054282
v -0.106896 0.091402 -0.061716
v -0.102036 0.095725 -0.068178
v -0.096888 0.096774 -0.074345
v -0.092459 0.098205 -0.081085
v -0.088825 0.105430 -0.088825
v -0.085155 0.106142 -0.097100
v -0.080265 0.099967 -0.104604
v -0.073341 0.101029 -0.109762
v -0.064414 0.100358 -0.111568
v -0.054350 0.099769 -0.110212
v -0.044375 0.094960 -0.107131
v -0.035444 0.095638 -0.104414
v -0.027822 0.098820 -0.103835
v -0.021088 0.102289 -0.106014
v -0.014504 0.101921 -0.110168
v -0.007509 0.103910 -0.114569
v -0.000000 0.108021 -0.117477
v 0.007737 0.110148 -0.118046
v 0.015365 0.104558 -0.116712
v 0.022846 0.107093 -0.114855
v 0.030533 0.098513 -0.113949
v 0.038921 0.095330 -0.114658
v 0.048208 0.097318 -0.116384
v 0.057955 0.093382 -0.117522
v 0.067124 0.089295 -0.116263
v 0.074516 0.090158 -0.111521
v 0.079404 0.095855 -0.103481
v 0.081993 0.104488 -0.093495
v 0.083404 0.107706 -0.083404
v 0.085149 0.105348 -0.074674
v 0.088360 0.107520 -0.067801
v 0.093195 0.107239 -0.062271
v 0.098765 0.101106 -0.057022
v 0.103663 0.097012 -0.051121
v 0.106795 0.094891 -0.044236
v 0.108071 0.093115 -0.036685
v 0.108524 0.099517 -0.029079
v 0.109783 0.096375 -0.021837
v 0.113147 0.102613 -0.014896
v 0.118771 0.104681 -0.007785
v 0.229938 0.073909 0.000000
v 0.240092 0.067144 0.015736
v 0.244433 0.064528 0.032180
v 0.241107 0.060172 0.047959
v 0.231016 0.057874 0.061901
v 0.217288 0.062202 0.073759
v 0.203688 0.066441 0.084371
v 0.192822 0.072622 0.095089
v 0.185075 0.076875 0.106853
v 0.178781 0.078772 0.119458
v 0.171448 0.076445 0.131557
v 0.161301 0.081711 0.141457
v 0.148282 0.082099 0.148282
v 0.133995 0.078321 0.152792
v 0.120702 0.082445 0.157302
v 0.109993 0.080125 0.164616
v 0.101908 0.073641 0.176509
v 0.094965 0.071037 0.192569
v 0.087026 0.060779 0.210100
v 0.076453 0.064870 0.225223
v 0.062873 0.063743 0.234644
v 0.047179 0.071606 0.237186
v 0.030841 0.075043 0.234260
v 0.015010 0.072618 0.229015
v 0.000000 0.074441 0.224626
v -0.014593 0.077508 0.222640
v -0.029262 0.073943 0.222264
v -0.043955 0.071878 0.220978
v -0.057904 0.069768 0.216100
v -0.070078 0.063293 0.206443
v -0.079999 0.073807 0.193136
v -0.088355 0.073859 0.179167
v -0.096939 0.084699 0.167903
v -0.107839 0.081768 0.161392
v -0.122281 0.087336 0.159360
v -0.139791 0.083792 0.159401
v -0.158219 0.077668 0.158219
v -0.174703 0.072102 0.153210
v -0.187081 0.066554 0.143553
v -0.194990 0.062421 0.130288
v -0.199982 0.059929 0.115460
v -0.204576 0.059652 0.100886
v -0.210715 0.061178 0.087281
v -0.218519 0.067294 0.074177
v -0.226047 0.063723 0.060569
v -0.230277 0.068769 0.045805
v -0.228800 0.073473 0.030122
v -0.221312 0.081623 0.014506
v -0.210062 0.078804 0.000000
v -0.198966 0.083464 -0.013041
v -0.191803 0.082178 -0.025251
v -0.190439 0.078090 -0.037881
v -0.193991 0.074478 -0.051980
v -0.199361 0.066163 -0.067674
v -0.202819 0.068459 -0.084010
v -0.201802 0.065000 -0.099518
v -0.195976 0.069130 -0.113147
v -0.187065 0.070545 -0.124993
v -0.177627 0.077852 -0.136298
v -0.169509 0.078406 -0.148655
v -0.162845 0.073718 -0.162845
v -0.156117 0.067118 -0.178017
v -0.147153 0.069043 -0.191774
v -0.134458 0.059274 -0.201230
v -0.118092 0.062698 -0.204542
v -0.099642 0.061749 -0.202055
v -0.081354 0.072248 -0.196407
v -0.064980 0.074116 -0.191426
v -0.051008 0.080896 -0.190363
v -0.038660 0.082173 -0.194359
v -0.026591 0.081107 -0.201976
v -0.013767 0.080399 -0.210043
v -0.000000 0.080872 -0.215374
v 0.014185 0.075328 -0.216418
v 0.028170 0.070478 -0.213971
v 0.041884 0.074003 -0.210567
v 0.055977 0.069248 -0.208907
v 0.071356 0.066471 -0.210207
v 0.088381 0.065244 -0.213371
v 0.106252 0.062416 -0.215457
v 0.123061 0.061632 -0.213148
v 0.136612 0.064092 -0.204454
v 0.145574 0.074497 -0.189716
v 0.150321 0.077892 -0.171408
v 0.152908 0.075334 -0.152908
v 0.156107 0.078771 -0.136902
v 0.161994 0.078611 -0.124302
v 0.170857 0.071419 -0.114163
v 0.181069 0.071486 -0.104540
v 0.190048 0.072492 -0.093721
v 0.195792 0.069141 -0.081100
v 0.198130 0.076014 -0.067256
v 0.198960 0.072768 -0.053311
v 0.201269 0.083952 -0.040035
v 0.207436 0.078983 -0.027309
v 0.217746 0.078379 -0.014272
v 0.334455 0.055951 0.000000
v 0.349225 0.046823 0.022889
v 0.355539 0.043237 0.046808
v 0.350701 0.048511 0.069759
v 0.336023 0.042678 0.090037
v 0.316056 0.046590 0.107287
v 0.296274 0.047710 0.122721
v 0.280469 0.055375 0.138312
v 0.269201 0.055104 0.155423
v 0.260046 0.060197 0.173757
v 0.249379 0.061659 0.191355
v 0.234619 0.056049 0.205756
v 0.215682 0.050732 0.215682
v 0.194902 0.055065 0.222243
v 0.175566 0.050104 0.228803
v 0.159990 0.045449 0.239442
v 0.148229 0.048790 0.256741
v 0.138130 0.051085 0.280100
v 0.126584 0.049240 0.305601
v 0.111204 0.052609 0.327597
v 0.091451 0.056271 0.341300
v 0.068624 0.059870 0.344998
v 0.044860 0.060642 0.340742
v 0.021833 0.056322 0.333112
v 0.000000 0.049678 0.326729
v -0.021226 0.045929 0.323840
v -0.042562 0.044856 0.323294
v -0.063935 0.049494 0.321423
v -0.084224 0.047123 0.314327
v -0.101931 0.051285 0.300280
v -0.116363 0.054187 0.280925
v -0.128517 0.059022 0.260607
v -0.141002 0.058092 0.244223
v -0.156856 0.063241 0.234752
v -0.177863 0.058098 0.231796
v -0.203333 0.053270 0.231856
v -0.230137 0.056131 0.230137
v -0.254113 0.049680 0.222851
v -0.272118 0.045521 0.208804
v -0.283621 0.048369 0.189510
v -0.290883 0.048607 0.167941
v -0.297565 0.048546 0.146743
v -0.306495 0.046915 0.126954
v -0.317846 0.053075 0.107894
v -0.328796 0.058763 0.088101
v -0.334948 0.060580 0.066625
v -0.332800 0.059415 0.043814
v -0.321908 0.054177 0.021099
v -0.305545 0.058012 0.000000
v -0.289405 0.048758 -0.018969
v -0.278986 0.055297 -0.036729
v -0.277002 0.047970 -0.055099
v -0.282169 0.049390 -0.075607
v -0.289979 0.052591 -0.098435
v -0.295009 0.050840 -0.122197
v -0.293530 0.055325 -0.144753
v -0.285056 0.058385 -0.164577
v -0.272095 0.060663 -0.181808
v -0.258367 0.057448 -0.198252
v -0.246558 0.053706 -0.216226
v -0.236866 0.050529 -0.236866
v -0.227079 0.048078 -0.258934
v -0.214041 0.045444 -0.278944
v -0.195575 0.046809 -0.292699
v -0.171771 0.048437 -0.297515
v -0.144934 0.047482 -0.293898
v -0.118334 0.049182 -0.285682
v -0.094517 0.058534 -0.278438
v -0.074193 0.059481 -0.276892
v -0.056233 0.062438 -0.282704
v -0.038677 0.062265 -0.293783
v -0.020025 0.054414 -0.305517
v -0.000000 0.056677 -0.313271
v 0.020632 0.052484 -0.314790
v 0.040974 0.047718 -0.311231
v 0.060923 0.046241 -0.306280
v 0.081420 0.045806 -0.303865
v 0.103790 0.045232 -0.305755
v 0.128555 0.049188 -0.310358
v 0.154548 0.052909 -0.313392
v 0.178998 0.053438 -0.310034
v 0.198709 0.058389 -0.297388
v 0.211744 0.053264 -0.275950
v 0.218649 0.058141 -0.249321
v 0.222411 0.057325 -0.222411
v 0.227064 0.053104 -0.199130
v 0.235628 0.045725 -0.180804
v 0.248519 0.048913 -0.166055
v 0.263373 0.050858 -0.152059
v 0.276434 0.046848 -0.136322
v 0.284788 0.054581 -0.117963
v 0.288189 0.054577 -0.097827
v 0.289397 0.057453 -0.077544
v 0.292754 0.057185 -0.058232
v 0.301725 0.061483 -0.039723
v 0.316722 0.055107 -0.020759
v -0.144412 0.126250 -0.121647
v -0.076803 0.126250 0.055917
v -0.144412 0.132250 -0.121647
v -0.076803 0.132250 0.055917
v -0.133197 0.126250 -0.125917
v -0.065588 0.126250 0.051647
v -0.133197 0.132250 -0.125917
v -0.065588 0.132250 0.051647
v -0.088261 0.133750 -0.112189
v -0.033224 0.133750 0.069665
v -0.088261 0.139750 -0.112189
v -0.033224 0.139750 0.069665
v -0.076776 0.133750 -0.115665
v -0.021739 0.133750 0.066189
v -0.076776 0.139750 -0.115665
v -0.021739 0.139750 0.066189
v -0.038442 0.141250 -0.100121
v 0.016964 0.141250 0.081621
v -0.038442 0.147250 -0.100121
v 0.016964 0.147250 0.081621
v -0.026964 0.141250 -0.103621
v 0.028442 0.141250 0.078121
v -0.026964 0.147250 -0.103621
v 0.028442 0.147250 0.078121
v 0.012892 0.135250 -0.088611
v 0.065579 0.135250 0.093938
v 0.012892 0.141250 -0.088611
v 0.065579 0.141250 0.093938
v 0.024421 0.135250 -0.091938
v 0.077108 0.135250 0.090611
v 0.024421 0.141250 -0.091938
v 0.077108 0.141250 0.090611
v 0.068382 0.127750 -0.078392
v 0.109908 0.127750 0.107015
v 0.068382 0.133750 -0.078392
v 0.109908 0.133750 0.107015
v 0.080092 0.127750 -0.081015
v 0.121618 0.127750 0.104392
v 0.080092 0.133750 -0.081015
v 0.121618 0.133750 0.104392
v -0.050300 0.116960 0.156352
v -0.079680 0.116960 0.146974
v -0.050300 0.138154 0.156352
v -0.079680 0.138154 0.146974
v -0.056413 0.116960 0.175502
v -0.085793 0.116960 0.166124
v -0.056413 0.138154 0.175502
v -0.085793 0.138154 0.166124
v 0.032856 0.126379 0.042515
v 0.000048 0.126379 0.067807
v 0.032856 0.154522 0.042515
v 0.000048 0.154522 0.067807
v 0.051100 0.126379 0.066180
v 0.018293 0.126379 0.091473
v 0.051100 0.154522 0.066180
v 0.018293 0.154522 0.091473
v -0.035147 0.129887 0.036346
v -0.053263 0.129887 -0.000398
v -0.035147 0.153540 0.036346
v -0.053263 0.153540 -0.000398
v -0.057341 0.129887 0.047289
v -0.075457 0.129887 0.010545
v -0.057341 0.153540 0.047289
v -0.075457 0.153540 0.010545
v 0.034406 0.111164 -0.249001
v 0.000347 0.111164 -0.233782
v 0.034406 0.134891 -0.249001
v 0.000347 0.134891 -0.233782
v 0.043287 0.111164 -0.229125
v 0.009228 0.111164 -0.213907
v 0.043287 0.134891 -0.229125
v 0.009228 0.134891 -0.213907
v 0.047650 0.120239 0.146657
v 0.026251 0.120239 0.169243
v 0.047650 0.133732 0.146657
v 0.026251 0.133732 0.169243
v 0.079049 0.120239 0.176404
v 0.057650 0.120239 0.198991
v 0.079049 0.133732 0.176404
v 0.057650 0.133732 0.198991
v -0.036568 0.136598 -0.006331
v -0.039763 0.136598 0.037499
v -0.036568 0.151691 -0.006331
v -0.039763 0.151691 0.037499
v -0.009916 0.136598 -0.004388
v -0.013110 0.136598 0.039442
v -0.009916 0.151691 -0.004388
v -0.013110 0.151691 0.039442
v -0.029043 0.117179 0.186950
v -0.050447 0.117179 0.160335
v -0.029043 0.134941 0.186950
v -0.050447 0.134941 0.160335
v -0.053068 0.117179 0.206272
v -0.074472 0.117179 0.179657
v -0.053068 0.134941 0.206272
v -0.074472 0.134941 0.179657
v 0.047000 0.119229 0.129761
v 0.039649 0.119229 0.147118
v 0.047000 0.139654 0.129761
v 0.039649 0.139654 0.147118
v 0.081638 0.119229 0.144431
v 0.074287 0.119229 0.161788
v 0.081638 0.139654 0.144431
v 0.074287 0.139654 0.161788
v 0.179959 0.117807 -0.068796
v 0.167992 0.117807 -0.091264
v 0.179959 0.136146 -0.068796
v 0.167992 0.136146 -0.091264
v 0.160968 0.117807 -0.058680
v 0.149000 0.117807 -0.081149
v 0.160968 0.136146 -0.058680
v 0.149000 0.136146 -0.081149
v 0.019454 0.136568 -0.044831
v -0.012395 0.136568 -0.015070
v 0.019454 0.152315 -0.044831
v -0.012395 0.152315 -0.015070
v 0.036559 0.136568 -0.026526
v 0.004709 0.136568 0.003235
v 0.036559 0.152315 -0.026526
v 0.004709 0.152315 0.003235
v -0.022880 0.125527 0.082637
v -0.057940 0.125527 0.085787
v -0.022880 0.147845 0.082637
v -0.057940 0.147845 0.085787
v -0.021170 0.125527 0.101672
v -0.056230 0.125527 0.104822
v -0.021170 0.147845 0.101672
v -0.056230 0.147845 0.104822
v 0.119226 0.126663 -0.014622
v 0.111379 0.126663 -0.031648
v 0.119226 0.145504 -0.014622
v 0.111379 0.145504 -0.031648
v 0.097993 0.126663 -0.004837
v 0.090147 0.126663 -0.021863
v 0.097993 0.145504 -0.004837
v 0.090147 0.145504 -0.021863
v 0.104790 0.127013 -0.078168
v 0.086851 0.127013 -0.118180
v 0.104790 0.140134 -0.078168
v 0.086851 0.140134 -0.118180
v 0.080784 0.127013 -0.067405
v 0.062845 0.127013 -0.107417
v 0.080784 0.140134 -0.067405
v 0.062845 0.140134 -0.107417
v 0.011771 0.124815 0.112195
v -0.018680 0.124815 0.105845
v 0.011771 0.141669 0.112195
v -0.018680 0.141669 0.105845
v 0.004130 0.124815 0.148836
v -0.026320 0.124815 0.142487
v 0.004130 0.141669 0.148836
v -0.026320 0.141669 0.142487
v -0.222382 0.115417 -0.003305
v -0.230823 0.115417 -0.039036
v -0.222382 0.129940 -0.003305
v -0.230823 0.129940 -0.039036
v -0.246010 0.115417 0.002277
v -0.254451 0.115417 -0.033454
v -0.246010 0.129940 0.002277
v -0.254451 0.129940 -0.033454
v 0.085801 0.122225 0.159978
v 0.070214 0.122225 0.133277
v 0.085801 0.134502 0.159978
v 0.070214 0.134502 0.133277
v 0.058906 0.122225 0.175678
v 0.043319 0.122225 0.148978
v 0.058906 0.134502 0.175678
v 0.043319 0.134502 0.148978
v -0.037983 0.128932 0.033996
v -0.050794 0.128932 0.064656
v -0.037983 0.153701 0.033996
v -0.050794 0.153701 0.064656
v -0.020708 0.128932 0.041214
v -0.033520 0.128932 0.071874
v -0.020708 0.153701 0.041214
v -0.033520 0.153701 0.071874
v -0.156447 0.110016 -0.176515
v -0.176850 0.110016 -0.156300
v -0.156447 0.137022 -0.176515
v -0.176850 0.137022 -0.156300
v -0.140307 0.110016 -0.160225
v -0.160711 0.110016 -0.140010
v -0.140307 0.137022 -0.160225
v -0.160711 0.137022 -0.140010
v -0.315371 0.052079 0.181567
v -0.323817 0.052079 0.193305
v -0.315371 0.063921 0.181567
v -0.323817 0.063921 0.193305
v -0.297114 0.052079 0.194703
v -0.305559 0.052079 0.206441
v -0.297114 0.063921 0.194703
v -0.305559 0.063921 0.206441
v -0.280898 0.050694 0.256800
v -0.287980 0.050694 0.276455
v -0.280898 0.065306 0.256800
v -0.287980 0.065306 0.276455
v -0.266498 0.050694 0.261987
v -0.273580 0.050694 0.281643
v -0.266498 0.065306 0.261987
v -0.273580 0.065306 0.281643
v -0.338950 0.053867 -0.028635
v -0.358708 0.053867 -0.019758
v -0.338950 0.062133 -0.028635
v -0.358708 0.062133 -0.019758
v -0.328263 0.053867 -0.004850
v -0.348021 0.053867 0.004027
v -0.328263 0.062133 -0.004850
v -0.348021 0.062133 0.004027
v -0.166260 0.054500 0.330359
v -0.173852 0.054500 0.357379
v -0.166260 0.061500 0.330359
v -0.173852 0.061500 0.357379
v -0.141709 0.054500 0.337256
v -0.149300 0.054500 0.364277
v -0.141709 0.061500 0.337256
v -0.149300 0.061500 0.364277
v 0.196480 0.054752 0.271330
v 0.192237 0.054752 0.285147
v 0.196480 0.061248 0.271330
v 0.192237 0.061248 0.285147
v 0.209058 0.054752 0.275192
v 0.204815 0.054752 0.289009
v 0.209058 0.061248 0.275192
v 0.204815 0.061248 0.289009
v 0.301542 0.052382 -0.268234
v 0.283978 0.052382 -0.243040
v 0.301542 0.063618 -0.268234
v 0.283978 0.063618 -0.243040
v 0.315663 0.052382 -0.258389
v 0.298098 0.052382 -0.233196
v 0.315663 0.063618 -0.258389
v 0.298098 0.063618 -0.233196
v 0.150621 0.054545 0.349600
v 0.121912 0.054545 0.338255
v 0.150621 0.061455 0.349600
v 0.121912 0.061455 0.338255
v 0.145338 0.054545 0.362969
v 0.116629 0.054545 0.351624
v 0.145338 0.061455 0.362969
v 0.116629 0.061455 0.351624
v 0.432369 0.050999 0.035274
v 0.409048 0.050999 0.051294
v 0.432369 0.065001 0.035274
v 0.409048 0.065001 0.051294
v 0.443087 0.050999 0.050877
v 0.419766 0.050999 0.066897
v 0.443087 0.065001 0.050877
v 0.419766 0.065001 0.066897
v -0.156845 0.051233 -0.325553
v -0.182308 0.051233 -0.344899
v -0.156845 0.064767 -0.325553
v -0.182308 0.064767 -0.344899
v -0.172270 0.051233 -0.305250
v -0.197734 0.051233 -0.324597
v -0.172270 0.064767 -0.305250
v -0.197734 0.064767 -0.324597
v 0.004024 0.054827 -0.337081
v 0.000423 0.054827 -0.351302
v 0.004024 0.061173 -0.337081
v 0.000423 0.061173 -0.351302
v -0.009815 0.054827 -0.333577
v -0.013416 0.054827 -0.347797
v -0.009815 0.061173 -0.333577
v -0.013416 0.061173 -0.347797
v 0.330194 0.050963 -0.232938
v 0.307866 0.050963 -0.225960
v 0.330194 0.065037 -0.232938
v 0.307866 0.065037 -0.225960
v 0.336656 0.050963 -0.212261
v 0.314327 0.050963 -0.205283
v 0.336656 0.065037 -0.212261
v 0.314327 0.065037 -0.205283
v 0.265562 0.051328 0.238719
v 0.260773 0.051328 0.211379
v 0.265562 0.064672 0.238719
v 0.260773 0.064672 0.211379
v 0.251432 0.051328 0.241194
v 0.246643 0.051328 0.213854
v 0.251432 0.064672 0.241194
v 0.246643 0.064672 0.213854
v 0.414560 0.053176 -0.142190
v 0.399122 0.053176 -0.157966
v 0.414560 0.062824 -0.142190
v 0.399122 0.062824 -0.157966
v 0.398548 0.053176 -0.126520
v 0.383109 0.053176 -0.142295
v 0.398548 0.062824 -0.126520
v 0.383109 0.062824 -0.142295
v 0.308011 0.051058 0.217757
v 0.295498 0.051058 0.208425
v 0.308011 0.064942 0.217757
v 0.295498 0.064942 0.208425
v 0.297151 0.051058 0.232319
v 0.284638 0.051058 0.222987
v 0.297151 0.064942 0.232319
v 0.284638 0.064942 0.222987
usemtl Green_Mat
f 1 2 3 4
f 5 8 7 6
f 1 5 6 2
f 2 6 7 3
f 3 7 8 4
f 4 8 5 1
usemtl Loose_Dirt_Mat
f 9 10 11
f 9 11 12
f 9 12 13
f 9 13 14
f 9 14 15
f 9 15 16
f 9 16 17
f 9 17 18
f 9 18 19
f 9 19 20
f 9 20 21
f 9 21 22
f 9 22 23
f 9 23 24
f 9 24 25
f 9 25 26
f 9 26 27
f 9 27 28
f 9 28 29
f 9 29 30
f 9 30 31
f 9 31 32
f 9 32 33
f 9 33 34
f 9 34 35
f 9 35 36
f 9 36 37
f 9 37 38
f 9 38 39
f 9 39 40
f 9 40 41
f 9 41 42
f 9 42 43
f 9 43 44
f 9 44 45
f 9 45 46
f 9 46 47
f 9 47 48
f 9 48 49
f 9 49 50
f 9 50 51
f 9 51 52
f 9 52 53
f 9 53 54
f 9 54 55
f 9 55 56
f 9 56 57
f 9 57 58
f 9 58 59
f 9 59 60
f 9 60 61
f 9 61 62
f 9 62 63
f 9 63 64
f 9 64 65
f 9 65 66
f 9 66 67
f 9 67 68
f 9 68 69
f 9 69 70
f 9 70 71
f 9 71 72
f 9 72 73
f 9 73 74
f 9 74 75
f 9 75 76
f 9 76 77
f 9 77 78
f 9 78 79
f 9 79 80
f 9 80 81
f 9 81 82
f 9 82 83
f 9 83 84
f 9 84 85
f 9 85 86
f 9 86 87
f 9 87 88
f 9 88 89
f 9 89 90
f 9 90 91
f 9 91 92
f 9 92 93
f 9 93 94
f 9 94 95
f 9 95 96
f 9 96 97
f 9 97 98
f 9 98 99
f 9 99 100
f 9 100 101
f 9 101 102
f 9 102 103
f 9 103 104
f 9 104 105
f 9 105 10
f 10 106 107 11
f 11 107 108 12
f 12 108 109 13
f 13 109 110 14
f 14 110 111 15
f 15 111 112 16
f 16 112 113 17
f 17 113 114 18
f 18 114 115 19
f 19 115 116 20
f 20 116 117 21
f 21 117 118 22
f 22 118 119 23
f 23 119 120 24
f 24 120 121 25
f 25 121 122 26
f 26 122 123 27
f 27 123 124 28
f 28 124 125 29
f 29 125 126 30
f 30 126 127 31
f 31 127 128 32
f 32 128 129 33
f 33 129 130 34
f 34 130 131 35
f 35 131 132 36
f 36 132 133 37
f 37 133 134 38
f 38 134 135 39
f 39 135 136 40
f 40 136 137 41
f 41 137 138 42
f 42 138 139 43
f 43 139 140 44
f 44 140 141 45
f 45 141 142 46
f 46 142 143 47
f 47 143 144 48
f 48 144 145 49
f 49 145 146 50
f 50 146 147 51
f 51 147 148 52
f 52 148 149 53
f 53 149 150 54
f 54 150 151 55
f 55 151 152 56
f 56 152 153 57
f 57 153 154 58
f 58 154 155 59
f 59 155 156 60
f 60 156 157 61
f 61 157 158 62
f 62 158 159 63
f 63 159 160 64
f 64 160 161 65
f 65 161 162 66
f 66 162 163 67
f 67 163 164 68
f 68 164 165 69
f 69 165 166 70
f 70 166 167 71
f 71 167 168 72
f 72 168 169 73
f 73 169 170 74
f 74 170 171 75
f 75 171 172 76
f 76 172 173 77
f 77 173 174 78
f 78 174 175 79
f 79 175 176 80
f 80 176 177 81
f 81 177 178 82
f 82 178 179 83
f 83 179 180 84
f 84 180 181 85
f 85 181 182 86
f 86 182 183 87
f 87 183 184 88
f 88 184 185 89
f 89 185 186 90
f 90 186 187 91
f 91 187 188 92
f 92 188 189 93
f 93 189 190 94
f 94 190 191 95
f 95 191 192 96
f 96 192 193 97
f 97 193 194 98
f 98 194 195 99
f 99 195 196 100
f 100 196 197 101
f 101 197 198 102
f 102 198 199 103
f 103 199 200 104
f 104 200 201 105
f 105 201 106 10
f 106 202 203 107
f 107 203 204 108
f 108 204 205 109
f 109 205 206 110
f 110 206 207 111
f 111 207 208 112
f 112 208 209 113
f 113 209 210 114
f 114 210 211 115
f 115 211 212 116
f 116 212 213 117
f 117 213 214 118
f 118 214 215 119
f 119 215 216 120
f 120 216 217 121
f 121 217 218 122
f 122 218 219 123
f 123 219 220 124
f 124 220 221 125
f 125 221 222 126
f 126 222 223 127
f 127 223 224 128
f 128 224 225 129
f 129 225 226 130
f 130 226 227 131
f 131 227 228 132
f 132 228 229 133
f 133 229 230 134
f 134 230 231 135
f 135 231 232 136
f 136 232 233 137
f 137 233 234 138
f 138 234 235 139
f 139 235 236 140
f 140 236 237 141
f 141 237 238 142
f 142 238 239 143
f 143 239 240 144
f 144 240 241 145
f 145 241 242 146
f 146 242 243 147
f 147 243 244 148
f 148 244 245 149
f 149 245 246 150
f 150 246 247 151
f 151 247 248 152
f 152 248 249 153
f 153 249 250 154
f 154 250 251 155
f 155 251 252 156
f 156 252 253 157
f 157 253 254 158
f 158 254 255 159
f 159 255 256 160
f 160 256 257 161
f 161 257 258 162
f 162 258 259 163
f 163 259 260 164
f 164 260 261 165
f 165 261 262 166
f 166 262 263 167
f 167 263 264 168
f 168 264 265 169
f 169 265 266 170
f 170 266 267 171
f 171 267 268 172
f 172 268 269 173
f 173 269 270 174
f 174 270 271 175
f 175 271 272 176
f 176 272 273 177
f 177 273 274 178
f 178 274 275 179
f 179 275 276 180
f 180 276 277 181
f 181 277 278 182
f 182 278 279 183
f 183 279 280 184
f 184 280 281 185
f 185 281 282 186
f 186 282 283 187
f 187 283 284 188
f 188 284 285 189
f 189 285 286 190
f 190 286 287 191
f 191 287 288 192
f 192 288 289 193
f 193 289 290 194
f 194 290 291 195
f 195 291 292 196
f 196 292 293 197
f 197 293 294 198
f 198 294 295 199
f 199 295 296 200
f 200 296 297 201
f 201 297 202 106
usemtl Dark_Dirt_Mat
f 298 299 301 300
f 302 304 305 303
f 298 302 303 299
f 300 301 305 304
f 298 300 304 302
f 299 303 305 301
f 306 307 309 308
f 310 312 313 311
f 306 310 311 307
f 308 309 313 312
f 306 308 312 310
f 307 311 313 309
f 314 315 317 316
f 318 320 321 319
f 314 318 319 315
f 316 317 321 320
f 314 316 320 318
f 315 319 321 317
f 322 323 325 324
f 326 328 329 327
f 322 326 327 323
f 324 325 329 328
f 322 324 328 326
f 323 327 329 325
f 330 331 333 332
f 334 336 337 335
f 330 334 335 331
f 332 333 337 336
f 330 332 336 334
f 331 335 337 333
usemtl Loose_Dirt_Mat
f 338 339 341 340
f 342 344 345 343
f 338 342 343 339
f 340 341 345 344
f 338 340 344 342
f 339 343 345 341
f 346 347 349 348
f 350 352 353 351
f 346 350 351 347
f 348 349 353 352
f 346 348 352 350
f 347 351 353 349
f 354 355 357 356
f 358 360 361 359
f 354 358 359 355
f 356 357 361 360
f 354 356 360 358
f 355 359 361 357
f 362 363 365 364
f 366 368 369 367
f 362 366 367 363
f 364 365 369 368
f 362 364 368 366
f 363 367 369 365
f 370 371 373 372
f 374 376 377 375
f 370 374 375 371
f 372 373 377 376
f 370 372 376 374
f 371 375 377 373
f 378 379 381 380
f 382 384 385 383
f 378 382 383 379
f 380 381 385 384
f 378 380 384 382
f 379 383 385 381
f 386 387 389 388
f 390 392 393 391
f 386 390 391 387
f 388 389 393 392
f 386 388 392 390
f 387 391 393 389
f 394 395 397 396
f 398 400 401 399
f 394 398 399 395
f 396 397 401 400
f 394 396 400 398
f 395 399 401 397
f 402 403 405 404
f 406 408 409 407
f 402 406 407 403
f 404 405 409 408
f 402 404 408 406
f 403 407 409 405
f 410 411 413 412
f 414 416 417 415
f 410 414 415 411
f 412 413 417 416
f 410 412 416 414
f 411 415 417 413
f 418 419 421 420
f 422 424 425 423
f 418 422 423 419
f 420 421 425 424
f 418 420 424 422
f 419 423 425 421
f 426 427 429 428
f 430 432 433 431
f 426 430 431 427
f 428 429 433 432
f 426 428 432 430
f 427 431 433 429
f 434 435 437 436
f 438 440 441 439
f 434 438 439 435
f 436 437 441 440
f 434 436 440 438
f 435 439 441 437
f 442 443 445 444
f 446 448 449 447
f 442 446 447 443
f 444 445 449 448
f 442 444 448 446
f 443 447 449 445
f 450 451 453 452
f 454 456 457 455
f 450 454 455 451
f 452 453 457 456
f 450 452 456 454
f 451 455 457 453
f 458 459 461 460
f 462 464 465 463
f 458 462 463 459
f 460 461 465 464
f 458 460 464 462
f 459 463 465 461
f 466 467 469 468
f 470 472 473 471
f 466 470 471 467
f 468 469 473 472
f 466 468 472 470
f 467 471 473 469
f 474 475 477 476
f 478 480 481 479
f 474 478 479 475
f 476 477 481 480
f 474 476 480 478
f 475 479 481 477
f 482 483 485 484
f 486 488 489 487
f 482 486 487 483
f 484 485 489 488
f 482 484 488 486
f 483 487 489 485
f 490 491 493 492
f 494 496 497 495
f 490 494 495 491
f 492 493 497 496
f 490 492 496 494
f 491 495 497 493
f 498 499 501 500
f 502 504 505 503
f 498 502 503 499
f 500 501 505 504
f 498 500 504 502
f 499 503 505 501
f 506 507 509 508
f 510 512 513 511
f 506 510 511 507
f 508 509 513 512
f 506 508 512 510
f 507 511 513 509
f 514 515 517 516
f 518 520 521 519
f 514 518 519 515
f 516 517 521 520
f 514 516 520 518
f 515 519 521 517
f 522 523 525 524
f 526 528 529 527
f 522 526 527 523
f 524 525 529 528
f 522 524 528 526
f 523 527 529 525
f 530 531 533 532
f 534 536 537 535
f 530 534 535 531
f 532 533 537 536
f 530 532 536 534
f 531 535 537 533
f 538 539 541 540
f 542 544 545 543
f 538 542 543 539
f 540 541 545 544
f 538 540 544 542
f 539 543 545 541
f 546 547 549 548
f 550 552 553 551
f 546 550 551 547
f 548 549 553 552
f 546 548 552 550
f 547 551 553 549
f 554 555 557 556
f 558 560 561 559
f 554 558 559 555
f 556 557 561 560
f 554 556 560 558
f 555 559 561 557
f 562 563 565 564
f 566 568 569 567
f 562 566 567 563
f 564 565 569 568
f 562 564 568 566
f 563 567 569 565
f 570 571 573 572
f 574 576 577 575
f 570 574 575 571
f 572 573 577 576
f 570 572 576 574
f 571 575 577 573
f 578 579 581 580
f 582 584 585 583
f 578 582 583 579
f 580 581 585 584
f 578 580 584 582
f 579 583 585 581
f 586 587 589 588
f 590 592 593 591
f 586 590 591 587
f 588 589 593 592
f 586 588 592 590
f 587 591 593 589
